<?xml version="1.0" encoding="UTF-8" standalone="no"?><!DOCTYPE svg PUBLIC "-//W3C//DTD SVG 1.1//EN" "http://www.w3.org/Graphics/SVG/1.1/DTD/svg11.dtd"><svg width="100%" height="100%" viewBox="0 0 1110 1110" version="1.1" xmlns="http://www.w3.org/2000/svg" xmlns:xlink="http://www.w3.org/1999/xlink" xml:space="preserve" style="fill-rule:evenodd;clip-rule:evenodd;stroke-miterlimit:10;"><g id="Ebene-1"><path d="M555.278,1108.01l-552.756,-552.755l552.756,-552.758l552.756,552.758l-552.756,552.755Z" style="fill:#fc1e00;fill-rule:nonzero;stroke:#000;stroke-width:2px;"/><path d="M847.51,552.356c0,161.395 -130.836,292.23 -292.233,292.23c-161.394,0 -292.23,-130.835 -292.23,-292.23c0,-161.395 130.836,-292.231 292.23,-292.231c161.397,0 292.233,130.836 292.233,292.231" style="fill:#ff0;fill-rule:nonzero;"/><path d="M847.51,552.356c0,161.395 -130.836,292.23 -292.233,292.23c-161.394,0 -292.23,-130.835 -292.23,-292.23c0,-161.395 130.836,-292.231 292.23,-292.231c161.397,0 292.233,130.836 292.233,292.231Z" style="fill:none;stroke:#000;stroke-width:2px;"/><path d="M558.238,420.715c-3.072,-1.024 -6.143,-2.046 -9.217,-2.486c0.081,15.863 -1.904,32.275 -5.49,49.602c-2.448,-2.498 -4.752,-4.847 -6.996,-7.137l0,10.919c9.494,1.047 16.185,8.939 16.088,19.415c-0.086,9.263 -7.412,18.607 -16.088,22.066l0,17.653c6.323,-0.468 12.656,-1.225 18.991,-2.262l0,-86.065l83.961,30.173c3.626,-6.07 6.925,-12.484 9.964,-19.158l-91.213,-32.72Z" style="fill:none;stroke:#000;stroke-width:2px;"/><path d="M325.931,486.871c-2.209,5.944 -0.408,13.382 -0.408,20.151c1.024,-0.186 2.051,-0.37 3.076,-0.552c6.447,-10.863 12.896,-21.726 19.234,-32.4c-10.237,-1.875 -18.336,3.209 -21.902,12.801Z" style="fill:none;stroke:#000;stroke-width:2px;"/><path d="M520.3,370.476c-0.041,-3.638 -1.273,-7.377 -3.293,-10.804l-45.43,0c-3.691,5.168 -5.969,11.357 -6.015,17.763c-0.006,0.891 0.028,1.752 0.103,2.585l52.002,0c1.656,-3.357 2.665,-6.69 2.633,-9.544Z" style="fill:none;stroke:#000;stroke-width:2px;"/><path d="M536.535,548.688l0,22.724c6.33,1.411 12.66,2.825 18.991,4.234l0,-25.146c-6.251,-0.639 -12.503,-1.248 -18.762,-1.793c-0.077,-0.007 -0.153,-0.012 -0.229,-0.019Z" style="fill:none;stroke:#000;stroke-width:2px;"/><path d="M574.517,352.89c6.782,0 10.852,-5.428 10.852,-10.854l0,-12.208c0,-6.783 -4.07,-10.852 -10.852,-10.852c-6.781,0 -10.854,5.426 -10.854,10.852l0,12.208c0,6.783 4.073,10.854 10.854,10.854Z" style="fill:none;stroke:#000;stroke-width:2px;"/><path d="M527.039,329.829c0,-6.784 -5.426,-10.853 -10.854,-10.853c-4.746,0 -8.158,2.662 -9.783,6.118c8.231,4.404 15.047,10.233 20.625,17.21c0.002,-0.089 0.012,-0.178 0.012,-0.267l0,-12.208Z" style="fill:none;stroke:#000;stroke-width:2px;"/><path d="M358.851,597.513c10.714,-6.92 13.01,-16.926 14.787,-26.857l-8.034,-20.512c-7.286,11.96 -9.776,28.173 -6.753,47.369Z" style="fill:none;stroke:#000;stroke-width:2px;"/><path d="M487.969,437.649l-77.593,27.834l0,-74.611c0,-2.29 0.732,-4.335 1.979,-6.039c-35.522,5.217 -54.895,43.486 -35.955,75.316c7.181,12.072 16.115,22.006 26.287,30.372l94.912,-34.109c-3.264,-6.484 -6.42,-12.708 -9.63,-18.763Z" style="fill:none;stroke:#000;stroke-width:2px;"/><path d="M555.526,640.222c-6.343,-2.063 -12.675,-4.156 -18.991,-6.291l0,22.975c1.849,0.681 3.692,1.38 5.543,2.06c9.525,3.488 12.275,8.791 8.698,18.078c-9.418,3.002 -18.121,2.512 -26.415,-0.312c-7.913,3.115 -15.428,7.621 -21.741,13.933c-11.855,-11.859 -27.548,-18.578 -43.353,-18.959c5.254,3.6 10.504,7.133 15.813,10.567c14.876,9.627 29.947,15.506 45.101,17.459c11.988,-8.477 27.673,-9.955 40.953,-4.434c7.245,-2.523 14.485,-5.976 21.711,-10.398c-7.896,-6.012 -16.787,-9.766 -27.319,-11.873l0,-32.805Z" style="fill:none;stroke:#000;stroke-width:2px;"/><path d="M517.373,449.306l5.914,-2.125c-1.357,-1.384 -2.732,-2.788 -4.165,-4.249c-0.599,2.183 -1.179,4.296 -1.749,6.374Z" style="fill:none;stroke:#000;stroke-width:2px;"/><path d="M362.898,504.821l9.147,-3.288c-6.438,-0.411 -12.583,1.495 -18.809,5.399c-15.135,9.492 -26.049,32.008 -23.205,48.321c12.353,-0.056 16.695,-8.848 20.259,-18.424c1.569,-4.215 3.413,-7.871 5.893,-10.738l-1.424,-3.636c-2.713,-6.782 1.356,-14.921 8.139,-17.634Z" style="fill:none;stroke:#000;stroke-width:2px;"/><path d="M536.535,620.494c6.27,1.318 12.608,2.443 18.991,3.449l0,-29.75c-6.331,-2.076 -12.659,-4.158 -18.991,-6.23l0,32.531Z" style="fill:none;stroke:#000;stroke-width:2px;"/><path d="M394.93,638.129c-0.394,-4.564 -0.356,-8.889 0.037,-13.014l-12.257,-31.295c-4.713,17.338 -0.484,33.469 12.22,44.309Z" style="fill:none;stroke:#000;stroke-width:2px;"/><path d="M607.91,793.226c-0.037,0.008 -0.078,0.016 -0.117,0.018c-0.225,0.017 -0.444,0.033 -0.664,0.048l0,0.305c0.39,-0.197 0.635,-0.309 0.781,-0.371" style="fill:#fc1e00;fill-rule:nonzero;"/><path d="M607.91,793.226c-0.037,0.008 -0.078,0.016 -0.117,0.018c-0.225,0.017 -0.444,0.033 -0.664,0.048l0,0.305c0.39,-0.197 0.635,-0.309 0.781,-0.371Z" style="fill:none;stroke:#000;stroke-width:2px;"/><path d="M607.91,793.226c0.182,-0.041 0.289,-0.123 0,0Z" style="fill:#fc1e00;fill-rule:nonzero;stroke:#000;stroke-width:2px;"/><path d="M524.361,676.732c8.294,2.824 16.997,3.314 26.415,0.312c3.577,-9.287 0.827,-14.589 -8.698,-18.078c-1.851,-0.679 -3.694,-1.379 -5.543,-2.06l0,16.121c-4.093,0.91 -8.183,2.133 -12.174,3.705Z" style="fill:#fc1e00;fill-rule:nonzero;stroke:#000;stroke-width:2px;"/><path d="M536.535,548.688c0.076,0.007 0.152,0.012 0.229,0.019c6.259,0.545 12.511,1.154 18.762,1.793l0,-22.015c-6.335,1.036 -12.668,1.794 -18.991,2.262l0,17.941Z" style="fill:#fc1e00;fill-rule:nonzero;stroke:#000;stroke-width:2px;"/><path d="M741.215,547.737c-2.887,-4.354 -4.953,-7.595 -7.141,-10.75c-0.447,-0.645 -0.845,-1.25 -1.214,-1.834l-6.663,17.009c4.975,-1.466 9.885,-2.913 15.018,-4.425Z" style="fill:#fc1e00;fill-rule:nonzero;stroke:#000;stroke-width:2px;"/><path d="M683.039,441.596c0.043,-0.056 0.082,-0.112 0.123,-0.168c7.018,-9.203 14.51,-18.049 21.363,-27.37c11.461,-15.59 20.514,-32.108 17.934,-53.293c-18.117,3.02 -31.027,12.379 -40.361,25.664c0.611,1.402 0.941,2.92 0.941,4.443l0,50.724Z" style="fill:#fc1e00;fill-rule:nonzero;stroke:#000;stroke-width:2px;"/><path d="M639.486,472.593l89.676,32.228c8.138,2.713 10.849,10.852 8.138,18.991l-0.273,0.697c0.725,-0.11 1.488,-0.209 2.336,-0.289c13.904,-1.307 27.998,-0.813 41.838,-2.512c8.453,-1.037 16.582,-4.74 24.855,-7.245c-0.039,-2.063 -0.078,-4.127 -0.121,-6.191c-6.357,-1.946 -12.65,-5.267 -19.08,-5.563c-15.574,-0.718 -31.213,0.152 -46.818,-0.075c-2.578,-0.039 -5.125,-2.385 -7.686,-3.666c1.619,-2.506 2.688,-5.887 4.981,-7.331c3.982,-2.512 8.726,-3.806 13.134,-5.648c11.385,-4.761 23.219,-8.719 33.922,-14.705c4.618,-2.581 6.885,-9.367 11.735,-16.458c-35.405,-2.413 -59.155,18.35 -87.811,25.738c3.67,-8.453 8.057,-15.805 13.756,-21.94c8.408,-9.052 18.27,-16.772 26.555,-25.925c8.562,-9.456 9.449,-20.516 3.453,-31.86c-17.379,1.55 -22.59,5.807 -26.875,20.754c-1.047,3.662 -2.701,7.427 -5.035,10.395c-6.887,8.775 -14.03,17.375 -21.494,25.667c-7.721,8.574 -15.936,16.703 -25.332,26.482c-1.495,-8.361 -1.391,-15.606 0.001,-22.132l-23.89,-8.57c-3.039,6.674 -6.338,13.087 -9.965,19.158Z" style="fill:#fc1e00;fill-rule:nonzero;stroke:#000;stroke-width:2px;"/><path d="M536.535,633.931c6.316,2.135 12.648,4.229 18.991,6.291l0,-16.279c-6.383,-1.006 -12.721,-2.131 -18.991,-3.45l0,13.438Z" style="fill:#fc1e00;fill-rule:nonzero;stroke:#000;stroke-width:2px;"/><path d="M708.92,621.228c-1.918,-4.922 -3.475,-8.932 -4.869,-12.518l-4.041,10.317c2.517,0.633 5.39,1.389 8.91,2.201Z" style="fill:#fc1e00;fill-rule:nonzero;stroke:#000;stroke-width:2px;"/><path d="M725.684,580.953c-2.83,-3.875 -4.76,-7.228 -6.885,-9.899l-4.9,12.512c3.234,-0.691 6.883,-1.554 11.785,-2.613Z" style="fill:#fc1e00;fill-rule:nonzero;stroke:#000;stroke-width:2px;"/><path d="M686.6,654.269c-0.057,-0.193 -0.113,-0.375 -0.172,-0.566l-0.178,0.459c0.118,0.035 0.231,0.07 0.35,0.107" style="fill:#fc1e00;fill-rule:nonzero;"/><path d="M686.6,654.269c-0.057,-0.193 -0.113,-0.375 -0.172,-0.566l-0.178,0.459c0.118,0.035 0.231,0.07 0.35,0.107Z" style="fill:none;stroke:#000;stroke-width:2px;"/><path d="M555.526,594.193l0,-18.547c-6.331,-1.409 -12.661,-2.823 -18.991,-4.235l0,16.552c6.332,2.072 12.66,4.154 18.991,6.23Z" style="fill:#fc1e00;fill-rule:nonzero;stroke:#000;stroke-width:2px;"/><path d="M529.752,719.15c-4.509,4.508 -9.85,7.762 -15.561,9.773c0.138,0.053 0.275,0.106 0.412,0.159c6.917,2.638 9.777,7.814 9.358,15.951c-0.815,15.859 -0.237,31.789 -0.237,47.744l24.259,0l0,-70.248c5.289,-0.277 9.997,-0.488 14.532,-0.734c-1.006,-0.831 -1.983,-1.708 -2.92,-2.645c-8.137,-8.139 -21.705,-8.139 -29.844,0" style="fill:#fc1e00;fill-rule:nonzero;"/><path d="M529.752,719.15c-4.509,4.508 -9.85,7.762 -15.561,9.773c0.138,0.053 0.275,0.106 0.412,0.159c6.917,2.638 9.777,7.814 9.358,15.951c-0.815,15.859 -0.237,31.789 -0.237,47.744l24.259,0l0,-70.248c5.289,-0.277 9.997,-0.488 14.532,-0.734c-1.006,-0.831 -1.983,-1.708 -2.92,-2.645c-8.137,-8.139 -21.705,-8.139 -29.844,0Z" style="fill:none;stroke:#000;stroke-width:2px;"/><path d="M520.3,370.476c0.032,2.854 -0.977,6.187 -2.633,9.544l26.694,0c-0.79,-3.155 -1.68,-6.301 -2.686,-9.438c-1.212,-3.782 -2.6,-7.423 -4.169,-10.91l-20.499,0c2.02,3.427 3.252,7.166 3.293,10.804" style="fill:#fc1e00;fill-rule:nonzero;"/><path d="M520.3,370.476c0.032,2.854 -0.977,6.187 -2.633,9.544l26.694,0c-0.79,-3.155 -1.68,-6.301 -2.686,-9.438c-1.212,-3.782 -2.6,-7.423 -4.169,-10.91l-20.499,0c2.02,3.427 3.252,7.166 3.293,10.804Z" style="fill:none;stroke:#000;stroke-width:2px;"/><path d="M517.373,449.306c0.57,-2.078 1.15,-4.191 1.749,-6.374c1.433,1.461 2.808,2.865 4.165,4.249l13.248,-4.761l0,18.273c2.244,2.29 4.548,4.64 6.996,7.137c3.586,-17.326 5.571,-33.738 5.49,-49.602c-0.996,-0.142 -1.994,-0.226 -2.992,-0.226c-4.068,0 -8.138,1.357 -10.851,2.713l-47.208,16.934c3.21,6.055 6.366,12.279 9.63,18.763l19.773,-7.106Z" style="fill:#fc1e00;fill-rule:nonzero;stroke:#000;stroke-width:2px;"/><path d="M580.689,730.459c0.088,1.135 0.088,2.369 -0.021,3.736c-0.864,10.76 -1.188,21.586 -1.202,32.385c-0.033,27.211 1.366,28.639 27.663,26.713l0,-65.734c-5.582,2.533 -11.635,3.802 -17.69,3.802c-2.935,0 -5.869,-0.308 -8.75,-0.902Z" style="fill:#fc1e00;fill-rule:nonzero;stroke:#000;stroke-width:2px;"/><path d="M325.523,507.022c0,-6.769 -1.801,-14.207 0.408,-20.151c3.567,-9.592 11.665,-14.676 21.903,-12.801c-6.338,10.674 -12.788,21.537 -19.235,32.4c-1.025,0.182 -2.052,0.366 -3.076,0.552m159.463,197.208c8.139,8.137 21.707,8.137 29.844,0c1.674,-1.675 3.469,-3.167 5.351,-4.498c-15.154,-1.953 -30.225,-7.832 -45.101,-17.459c-5.309,-3.433 -10.559,-6.966 -15.813,-10.566c-0.471,-0.01 -0.941,-0.035 -1.412,-0.035c-14.922,0 -28.485,5.426 -39.339,13.568l-23.549,-60.125c-0.393,4.125 -0.43,8.449 -0.037,13.014c-12.704,-10.84 -16.932,-26.971 -12.219,-44.309l-9.073,-23.163c-1.777,9.931 -4.073,19.937 -14.787,26.857c-3.023,-19.197 -0.533,-35.409 6.753,-47.369l-9.421,-24.054c-2.48,2.868 -4.324,6.524 -5.893,10.739c-3.564,9.576 -7.906,18.368 -20.259,18.423c-2.844,-16.313 8.07,-38.829 23.205,-48.32c6.226,-3.905 12.371,-5.81 18.809,-5.399l30.642,-11.012c-10.172,-8.366 -19.105,-18.301 -26.287,-30.372c-18.94,-31.83 0.434,-70.099 35.955,-75.317c1.705,-2.334 4.383,-4.028 7.518,-4.812l45.793,0c-0.076,-0.833 -0.11,-1.695 -0.104,-2.585c0.046,-6.407 2.324,-12.595 6.016,-17.763l-23.219,0l0,-35.271c0,-2.785 0.928,-5.563 2.57,-7.878c-11.9,2.859 -24.343,4.686 -34.843,10.207c-57.737,30.36 -94.372,77.296 -106.612,142.108c-1.972,10.441 -3.332,20.998 -4.974,31.501l0,9.616c0.798,6.311 1.271,12.684 2.472,18.918c1.8,9.341 2.098,19.715 6.563,27.669c16.384,29.174 32.42,58.838 51.989,85.854c17.618,24.322 39.672,43.652 66.495,56.4c6.961,-4.514 15.041,-6.774 23.122,-6.774c10.854,0 21.707,4.069 29.845,12.207" style="fill:#fc1e00;fill-rule:nonzero;"/><path d="M325.523,507.022c0,-6.769 -1.801,-14.207 0.408,-20.151c3.567,-9.592 11.665,-14.676 21.903,-12.801c-6.338,10.674 -12.788,21.537 -19.235,32.4c-1.025,0.182 -2.052,0.366 -3.076,0.552Zm159.463,197.208c8.139,8.137 21.707,8.137 29.844,0c1.674,-1.675 3.469,-3.167 5.351,-4.498c-15.154,-1.953 -30.225,-7.832 -45.101,-17.459c-5.309,-3.433 -10.559,-6.966 -15.813,-10.566c-0.471,-0.01 -0.941,-0.035 -1.412,-0.035c-14.922,0 -28.485,5.426 -39.339,13.568l-23.549,-60.125c-0.393,4.125 -0.43,8.449 -0.037,13.014c-12.704,-10.84 -16.932,-26.971 -12.219,-44.309l-9.073,-23.163c-1.777,9.931 -4.073,19.937 -14.787,26.857c-3.023,-19.197 -0.533,-35.409 6.753,-47.369l-9.421,-24.054c-2.48,2.868 -4.324,6.524 -5.893,10.739c-3.564,9.576 -7.906,18.368 -20.259,18.423c-2.844,-16.313 8.07,-38.829 23.205,-48.32c6.226,-3.905 12.371,-5.81 18.809,-5.399l30.642,-11.012c-10.172,-8.366 -19.105,-18.301 -26.287,-30.372c-18.94,-31.83 0.434,-70.099 35.955,-75.317c1.705,-2.334 4.383,-4.028 7.518,-4.812l45.793,0c-0.076,-0.833 -0.11,-1.695 -0.104,-2.585c0.046,-6.407 2.324,-12.595 6.016,-17.763l-23.219,0l0,-35.271c0,-2.785 0.928,-5.563 2.57,-7.878c-11.9,2.859 -24.343,4.686 -34.843,10.207c-57.737,30.36 -94.372,77.296 -106.612,142.108c-1.972,10.441 -3.332,20.998 -4.974,31.501l0,9.616c0.798,6.311 1.271,12.684 2.472,18.918c1.8,9.341 2.098,19.715 6.563,27.669c16.384,29.174 32.42,58.838 51.989,85.854c17.618,24.322 39.672,43.652 66.495,56.4c6.961,-4.514 15.041,-6.774 23.122,-6.774c10.854,0 21.707,4.069 29.845,12.207Z" style="fill:none;stroke:#000;stroke-width:2px;"/><path d="M506.402,325.094c-0.696,1.481 -1.07,3.106 -1.07,4.735l0,12.208c0,6.782 5.427,10.853 10.853,10.853c6.674,0 10.711,-5.251 10.842,-10.587c-5.578,-6.976 -12.395,-12.805 -20.625,-17.209Z" style="fill:#fc1e00;fill-rule:nonzero;stroke:#000;stroke-width:2px;"/><path d="M589.439,690.666c-2.124,-2.123 -4.32,-4.033 -6.594,-5.766c-7.226,4.422 -14.466,7.875 -21.71,10.399c4.888,2.031 9.454,5.002 13.383,8.931c4.07,4.069 9.495,6.782 14.922,6.782c5.426,0 10.855,-2.713 14.922,-6.782c0.889,-0.89 1.816,-1.722 2.766,-2.513l0,-5.235c13.728,-5.863 29.072,-13.843 48.21,-4.673c-0.64,-5.377 -1.258,-10.559 -1.87,-15.7c-6.062,-1.964 -12.523,-3.082 -19.264,-3.082c-16.277,0 -32.556,6.787 -44.765,17.639Z" style="fill:#fc1e00;fill-rule:nonzero;stroke:#000;stroke-width:2px;"/><path d="M552.623,491.028c0.098,-10.476 -6.594,-18.368 -16.088,-19.415l0,41.481c8.676,-3.459 16.002,-12.803 16.088,-22.066" style="fill:#fc1e00;fill-rule:nonzero;"/><path d="M552.623,491.028c0.098,-10.476 -6.594,-18.368 -16.088,-19.415l0,41.481c8.676,-3.459 16.002,-12.803 16.088,-22.066Z" style="fill:none;stroke:#000;stroke-width:2px;"/><path d="M496.759,346.052c-9.826,-0.249 -19.303,5.388 -25.182,13.621l45.43,0c-4.394,-7.456 -12.52,-13.426 -20.248,-13.621" style="fill-rule:nonzero;"/><path d="M496.759,346.052c-9.826,-0.249 -19.303,5.388 -25.182,13.621l45.43,0c-4.394,-7.456 -12.52,-13.426 -20.248,-13.621Z" style="fill:none;stroke:#000;stroke-width:2px;"/><path d="M563.664,329.829c0,-5.427 4.072,-10.853 10.854,-10.853c6.782,0 10.852,4.069 10.852,10.853l0,12.208c0,5.426 -4.07,10.854 -10.852,10.854c-6.782,0 -10.854,-4.072 -10.854,-10.854l0,-12.208Zm-86.078,-14.597c4.504,1.272 8.996,2.576 13.509,3.812c5.577,1.528 10.664,3.566 15.307,6.05c1.625,-3.456 5.037,-6.118 9.783,-6.118c5.428,0 10.854,4.069 10.854,10.853l0,12.208c0,0.089 -0.01,0.178 -0.012,0.267c4.153,5.193 7.623,11.019 10.48,17.369l104.837,0l0,-35.271c1.36,-6.782 -5.426,-13.565 -12.209,-13.565l-168.209,0c-4.797,0 -8.639,2.364 -10.996,5.687c1.687,-0.406 3.363,-0.832 5.022,-1.292l21.634,0Z" style="fill-rule:nonzero;stroke:#000;stroke-width:2px;"/><path d="M448.359,359.673l23.219,0c5.879,-8.232 15.355,-13.869 25.181,-13.621c7.728,0.195 15.854,6.165 20.248,13.621l20.499,0c-2.856,-6.35 -6.327,-12.176 -10.479,-17.369c-0.131,5.335 -4.168,10.587 -10.842,10.587c-5.426,0 -10.853,-4.072 -10.853,-10.854l0,-12.208c0,-1.628 0.374,-3.253 1.07,-4.735c-4.644,-2.484 -9.73,-4.522 -15.308,-6.049c-4.512,-1.237 -9.005,-2.54 -13.508,-3.813l-21.634,0c-1.659,0.461 -3.335,0.886 -5.023,1.292c-1.642,2.316 -2.57,5.093 -2.57,7.878l0,35.271Z" style="fill:#fff;fill-rule:nonzero;stroke:#000;stroke-width:2px;"/><path d="M520.181,699.732c13.609,1.754 27.287,0.326 40.953,-4.434c-13.28,-5.521 -28.966,-4.043 -40.953,4.434Z" style="fill-rule:nonzero;stroke:#000;stroke-width:2px;"/><path d="M432.019,698.797c-2.385,1.547 -4.641,3.355 -6.719,5.434c-8.14,8.136 -21.707,8.136 -29.844,0c-16.28,-16.278 -43.41,-16.278 -59.687,0c-4.07,4.068 -4.07,10.851 0,14.92c4.069,4.074 10.852,4.074 14.921,0c8.138,-8.139 21.704,-8.139 29.845,0c16.277,16.281 43.407,16.281 59.685,0c4.07,-4.069 9.495,-6.784 14.921,-6.784c5.431,0 10.854,2.715 14.923,6.784c11.771,11.773 29.215,15.027 44.128,9.773c-18.839,-7.184 -37.573,-14.871 -56.888,-20.512c-8.861,-2.588 -17.283,-5.812 -25.285,-9.615Z" style="fill-rule:nonzero;stroke:#000;stroke-width:2px;"/><path d="M568.249,721.453c-1.899,0.125 -3.803,0.236 -5.733,0.342c5.361,4.426 11.628,7.31 18.173,8.664c-0.526,-6.77 -4.58,-9.524 -12.441,-9.006" style="fill-rule:nonzero;"/><path d="M568.249,721.453c-1.899,0.125 -3.803,0.236 -5.733,0.342c5.361,4.426 11.628,7.31 18.173,8.664c-0.526,-6.77 -4.58,-9.524 -12.441,-9.006Z" style="fill:none;stroke:#000;stroke-width:2px;"/><path d="M619.283,719.15c8.143,-8.139 21.703,-8.139 29.844,0c8.138,8.143 18.992,12.211 29.844,12.211c10.851,0 21.705,-4.068 29.845,-12.211c8.137,-8.139 21.701,-8.139 29.84,0c4.07,4.074 10.852,4.074 14.92,0c4.074,-4.068 4.074,-10.852 0,-14.92c-16.275,-16.277 -43.404,-16.277 -59.682,0c-8.142,8.137 -21.707,8.137 -29.843,0c-15.391,-15.387 -40.471,-16.219 -56.922,-2.514l0,25.842c4.425,-2.008 8.556,-4.808 12.154,-8.408" style="fill-rule:nonzero;"/><path d="M619.283,719.15c8.143,-8.139 21.703,-8.139 29.844,0c8.138,8.143 18.992,12.211 29.844,12.211c10.851,0 21.705,-4.068 29.845,-12.211c8.137,-8.139 21.701,-8.139 29.84,0c4.07,4.074 10.852,4.074 14.92,0c4.074,-4.068 4.074,-10.852 0,-14.92c-16.275,-16.277 -43.404,-16.277 -59.682,0c-8.142,8.137 -21.707,8.137 -29.843,0c-15.391,-15.387 -40.471,-16.219 -56.922,-2.514l0,25.842c4.425,-2.008 8.556,-4.808 12.154,-8.408Z" style="fill:none;stroke:#000;stroke-width:2px;"/><path d="M589.439,711.012c-5.426,0 -10.851,-2.713 -14.922,-6.781c-3.928,-3.931 -8.495,-6.902 -13.382,-8.933c-13.667,4.76 -27.345,6.188 -40.954,4.434c-1.882,1.331 -3.677,2.822 -5.352,4.499c-8.137,8.135 -21.705,8.135 -29.844,0c-8.137,-8.139 -18.991,-12.207 -29.844,-12.207c-8.081,0 -16.161,2.258 -23.122,6.772c8.002,3.803 16.423,7.028 25.285,9.615c19.314,5.641 38.049,13.329 56.887,20.512c5.711,-2.012 11.052,-5.266 15.56,-9.773c8.139,-8.139 21.707,-8.139 29.844,0c0.937,0.937 1.914,1.814 2.92,2.644c1.931,-0.105 3.834,-0.217 5.733,-0.342c7.861,-0.517 11.916,2.237 12.442,9.006c2.88,0.594 5.813,0.903 8.75,0.903c6.054,0 12.106,-1.27 17.688,-3.803l0,-25.842c-0.95,0.791 -1.877,1.623 -2.766,2.514c-4.067,4.068 -9.496,6.781 -14.923,6.781" style="fill:#fff;fill-rule:nonzero;"/><path d="M589.439,711.012c-5.426,0 -10.851,-2.713 -14.922,-6.781c-3.928,-3.931 -8.495,-6.902 -13.382,-8.933c-13.667,4.76 -27.345,6.188 -40.954,4.434c-1.882,1.331 -3.677,2.822 -5.352,4.499c-8.137,8.135 -21.705,8.135 -29.844,0c-8.137,-8.139 -18.991,-12.207 -29.844,-12.207c-8.081,0 -16.161,2.258 -23.122,6.772c8.002,3.803 16.423,7.028 25.285,9.615c19.314,5.641 38.049,13.329 56.887,20.512c5.711,-2.012 11.052,-5.266 15.56,-9.773c8.139,-8.139 21.707,-8.139 29.844,0c0.937,0.937 1.914,1.814 2.92,2.644c1.931,-0.105 3.834,-0.217 5.733,-0.342c7.861,-0.517 11.916,2.237 12.442,9.006c2.88,0.594 5.813,0.903 8.75,0.903c6.054,0 12.106,-1.27 17.688,-3.803l0,-25.842c-0.95,0.791 -1.877,1.623 -2.766,2.514c-4.067,4.068 -9.496,6.781 -14.923,6.781Z" style="fill:none;stroke:#000;stroke-width:2px;"/><path d="M683.039,465.484l0,-23.888c-4.711,6.22 -8.08,12.828 -9.697,20.409l9.697,3.479Z" style="fill-rule:nonzero;stroke:#000;stroke-width:2px;"/><path d="M496.654,398.871c6.633,0.119 16.381,-9.465 21.014,-18.851l-52.002,0c1.104,12.398 11.158,18.491 30.988,18.851" style="fill-rule:nonzero;"/><path d="M496.654,398.871c6.633,0.119 16.381,-9.465 21.014,-18.851l-52.002,0c1.104,12.398 11.158,18.491 30.988,18.851Z" style="fill:none;stroke:#000;stroke-width:2px;"/><path d="M410.376,465.484l77.593,-27.834c-2.216,-4.179 -4.456,-8.28 -6.779,-12.334c-13.999,-24.436 -32.554,-42.666 -63.656,-41.001c-1.762,0.094 -3.489,0.27 -5.179,0.518c-1.248,1.705 -1.979,3.749 -1.979,6.039l0,74.612Z" style="fill-rule:nonzero;stroke:#000;stroke-width:2px;"/><path d="M558.238,420.715l91.213,32.72c0.633,-1.387 1.258,-2.783 1.868,-4.193c7.925,-18.318 16.054,-36.625 25.472,-54.194c1.623,-3.029 3.397,-5.9 5.307,-8.619c-1.567,-3.595 -5.031,-6.408 -9.91,-6.408l-127.827,0c3.127,12.498 4.594,25.167 4.66,38.208c3.074,0.44 6.145,1.462 9.217,2.486Z" style="fill-rule:nonzero;stroke:#000;stroke-width:2px;"/><path d="M496.654,398.871c-19.83,-0.36 -29.884,-6.453 -30.988,-18.851l-45.793,0c-3.135,0.784 -5.813,2.478 -7.518,4.812c1.691,-0.248 3.417,-0.424 5.18,-0.518c31.101,-1.665 49.657,16.565 63.656,41.001c2.322,4.055 4.563,8.155 6.778,12.334l47.208,-16.935c2.713,-1.356 6.784,-2.712 10.852,-2.712c0.998,0 1.996,0.083 2.992,0.226c-0.066,-13.041 -1.533,-25.71 -4.66,-38.208l-26.693,0c-4.633,9.386 -14.381,18.97 -21.014,18.851" style="fill:#fff;fill-rule:nonzero;"/><path d="M496.654,398.871c-19.83,-0.36 -29.884,-6.453 -30.988,-18.851l-45.793,0c-3.135,0.784 -5.813,2.478 -7.518,4.812c1.691,-0.248 3.417,-0.424 5.18,-0.518c31.101,-1.665 49.657,16.565 63.656,41.001c2.322,4.055 4.563,8.155 6.778,12.334l47.208,-16.935c2.713,-1.356 6.784,-2.712 10.852,-2.712c0.998,0 1.996,0.083 2.992,0.226c-0.066,-13.041 -1.533,-25.71 -4.66,-38.208l-26.693,0c-4.633,9.386 -14.381,18.97 -21.014,18.851Z" style="fill:none;stroke:#000;stroke-width:2px;"/><path d="M651.318,449.241c-0.609,1.411 -1.234,2.806 -1.867,4.193l23.89,8.571c1.618,-7.581 4.987,-14.19 9.698,-20.41l0,-50.724c0,-1.522 -0.33,-3.039 -0.942,-4.442c-1.91,2.719 -3.683,5.589 -5.306,8.618c-9.418,17.57 -17.547,35.878 -25.473,54.195" style="fill-rule:nonzero;"/><path d="M651.318,449.241c-0.609,1.411 -1.234,2.806 -1.867,4.193l23.89,8.571c1.618,-7.581 4.987,-14.19 9.698,-20.41l0,-50.724c0,-1.522 -0.33,-3.039 -0.942,-4.442c-1.91,2.719 -3.683,5.589 -5.306,8.618c-9.418,17.57 -17.547,35.878 -25.473,54.195Z" style="fill:none;stroke:#000;stroke-width:2px;"/><path d="M385.349,586.154c-1.072,2.572 -1.95,5.133 -2.639,7.666l12.257,31.295c3.472,-36.34 35.131,-56.983 52.804,-86.68c-29.342,-3.012 -50.524,19.177 -62.422,47.719" style="fill-rule:nonzero;"/><path d="M385.349,586.154c-1.072,2.572 -1.95,5.133 -2.639,7.666l12.257,31.295c3.472,-36.34 35.131,-56.983 52.804,-86.68c-29.342,-3.012 -50.524,19.177 -62.422,47.719Z" style="fill:none;stroke:#000;stroke-width:2px;"/><path d="M534.185,587.191c-24.785,-8.111 -49.998,-12.454 -79.441,-8.825c5.931,6.079 9.642,11.184 14.516,14.661c20.564,14.668 43.427,22.457 67.275,27.467l0,-32.532c-0.784,-0.255 -1.567,-0.513 -2.35,-0.771" style="fill-rule:nonzero;"/><path d="M534.185,587.191c-24.785,-8.111 -49.998,-12.454 -79.441,-8.825c5.931,6.079 9.642,11.184 14.516,14.661c20.564,14.668 43.427,22.457 67.275,27.467l0,-32.532c-0.784,-0.255 -1.567,-0.513 -2.35,-0.771Z" style="fill:none;stroke:#000;stroke-width:2px;"/><path d="M452.263,601.715c-5.276,-1.697 -12.934,3.986 -19.5,6.283c3.107,3.799 5.769,8.123 9.454,11.238c3.265,2.764 7.519,4.555 11.585,6.127c27.533,10.633 55.047,21.323 82.732,31.543l0,-22.974c-9.623,-3.252 -19.214,-6.594 -28.763,-10.049c-18.731,-6.777 -36.59,-16.072 -55.508,-22.168" style="fill-rule:nonzero;"/><path d="M452.263,601.715c-5.276,-1.697 -12.934,3.986 -19.5,6.283c3.107,3.799 5.769,8.123 9.454,11.238c3.265,2.764 7.519,4.555 11.585,6.127c27.533,10.633 55.047,21.323 82.732,31.543l0,-22.974c-9.623,-3.252 -19.214,-6.594 -28.763,-10.049c-18.731,-6.777 -36.59,-16.072 -55.508,-22.168Z" style="fill:none;stroke:#000;stroke-width:2px;"/><path d="M536.535,530.746l0,-17.652c-2.284,0.91 -4.66,1.418 -7.024,1.403c-11.886,-0.075 -20.878,-9.163 -20.761,-20.979c0.111,-10.907 13.15,-22.082 25.708,-22.029c0.706,0.003 1.397,0.049 2.077,0.124l0,-10.92c-4.467,-4.556 -8.697,-8.871 -13.248,-13.512l-5.914,2.125c-2.698,9.83 -5.162,18.806 -8.22,29.937c-4.139,-8.034 -7.913,-15.594 -11.554,-22.831l-94.912,34.109c14.106,11.599 30.597,20.178 48.153,27.203c28.031,11.216 56.773,15.159 85.695,13.022Z" style="fill-rule:nonzero;stroke:#000;stroke-width:2px;"/><path d="M524.361,676.732c-4.261,-1.453 -8.416,-3.508 -12.5,-6.047c-14.566,-9.049 -28.783,-18.789 -43.926,-26.756c-14.257,-7.498 -29.048,-7.76 -43.216,3.752c11.951,8.239 23.259,16.297 34.548,24.026c15.805,0.38 31.498,7.099 43.353,18.959c6.313,-6.313 13.828,-10.819 21.741,-13.934Z" style="fill-rule:nonzero;stroke:#000;stroke-width:2px;"/><path d="M474.976,549.326c-0.273,1.279 -0.547,2.561 -0.821,3.842c4.337,2.441 8.401,6.073 13.053,7.136c16.43,3.756 32.876,7.439 49.327,11.107l0,-22.723c-16.569,-1.438 -33.207,-2.203 -49.83,-2.689c-3.875,-0.112 -7.819,2.154 -11.729,3.327Z" style="fill-rule:nonzero;stroke:#000;stroke-width:2px;"/><path d="M389.312,545.769c8.189,-4.066 14.525,-11.867 21.681,-18.011c-21.197,-0.077 -36.703,8.129 -45.389,22.386l8.034,20.512c0.165,-0.924 0.326,-1.846 0.488,-2.766c1.748,-9.89 5.204,-17.165 15.186,-22.121" style="fill-rule:nonzero;"/><path d="M389.312,545.769c8.189,-4.066 14.525,-11.867 21.681,-18.011c-21.197,-0.077 -36.703,8.129 -45.389,22.386l8.034,20.512c0.165,-0.924 0.326,-1.846 0.488,-2.766c1.748,-9.89 5.204,-17.165 15.186,-22.121Z" style="fill:none;stroke:#000;stroke-width:2px;"/><path d="M372.805,519.467c6.255,0.112 12.601,-4.63 21.437,-8.196c-8.049,-6.191 -15.291,-9.297 -22.197,-9.737l-9.147,3.287c-6.783,2.713 -10.852,10.852 -8.139,17.634l1.424,3.636c3.689,-4.265 8.801,-6.767 16.622,-6.624" style="fill-rule:nonzero;"/><path d="M372.805,519.467c6.255,0.112 12.601,-4.63 21.437,-8.196c-8.049,-6.191 -15.291,-9.297 -22.197,-9.737l-9.147,3.287c-6.783,2.713 -10.852,10.852 -8.139,17.634l1.424,3.636c3.689,-4.265 8.801,-6.767 16.622,-6.624Z" style="fill:none;stroke:#000;stroke-width:2px;"/><path d="M523.287,447.181c4.551,4.642 8.781,8.956 13.248,13.512l0,-18.273l-13.248,4.761Z" style="fill:#fff;fill-rule:nonzero;stroke:#000;stroke-width:2px;"/><path d="M467.935,643.93c15.143,7.966 29.359,17.707 43.926,26.755c4.084,2.539 8.239,4.595 12.5,6.048c3.991,-1.573 8.081,-2.795 12.174,-3.706l0,-16.12c-27.686,-10.221 -55.2,-20.911 -82.733,-31.543c-4.066,-1.573 -8.32,-3.364 -11.585,-6.127c-3.685,-3.116 -6.346,-7.441 -9.454,-11.24c6.567,-2.297 14.224,-7.98 19.5,-6.283c18.918,6.096 36.777,15.392 55.508,22.168c9.549,3.456 19.141,6.798 28.764,10.049l0,-13.438c-23.848,-5.009 -46.711,-12.798 -67.275,-27.466c-4.874,-3.476 -8.585,-8.582 -14.516,-14.66c29.443,-3.63 54.656,0.712 79.441,8.824c0.783,0.259 1.566,0.516 2.35,0.772l0,-16.552c-16.451,-3.668 -32.897,-7.351 -49.327,-11.106c-4.652,-1.064 -8.716,-4.697 -13.053,-7.136c0.274,-1.282 0.548,-2.564 0.821,-3.844c3.91,-1.173 7.854,-3.438 11.729,-3.327c16.623,0.487 33.261,1.252 49.83,2.69l0,-17.942c-28.922,2.137 -57.664,-1.806 -85.696,-13.022c-17.555,-7.024 -34.047,-15.603 -48.152,-27.202l-30.642,11.011c6.906,0.44 14.148,3.546 22.198,9.738c-8.837,3.566 -15.183,8.308 -21.438,8.196c-7.821,-0.144 -12.933,2.358 -16.622,6.623l9.421,24.054c8.685,-14.257 24.192,-22.463 45.389,-22.385c-7.156,6.143 -13.492,13.944 -21.681,18.01c-9.982,4.955 -13.438,12.231 -15.186,22.12c-0.162,0.92 -0.323,1.843 -0.488,2.767l9.072,23.164c0.689,-2.534 1.567,-5.094 2.639,-7.666c11.898,-28.542 33.08,-50.731 62.422,-47.72c-17.673,29.698 -49.332,50.341 -52.804,86.682l23.549,60.125c10.854,-8.144 24.417,-13.57 39.339,-13.57c0.471,0 0.941,0.027 1.412,0.036c-11.289,-7.728 -22.598,-15.787 -34.548,-24.025c14.168,-11.512 28.959,-11.25 43.216,-3.752" style="fill:#fff;fill-rule:nonzero;"/><path d="M467.935,643.93c15.143,7.966 29.359,17.707 43.926,26.755c4.084,2.539 8.239,4.595 12.5,6.048c3.991,-1.573 8.081,-2.795 12.174,-3.706l0,-16.12c-27.686,-10.221 -55.2,-20.911 -82.733,-31.543c-4.066,-1.573 -8.32,-3.364 -11.585,-6.127c-3.685,-3.116 -6.346,-7.441 -9.454,-11.24c6.567,-2.297 14.224,-7.98 19.5,-6.283c18.918,6.096 36.777,15.392 55.508,22.168c9.549,3.456 19.141,6.798 28.764,10.049l0,-13.438c-23.848,-5.009 -46.711,-12.798 -67.275,-27.466c-4.874,-3.476 -8.585,-8.582 -14.516,-14.66c29.443,-3.63 54.656,0.712 79.441,8.824c0.783,0.259 1.566,0.516 2.35,0.772l0,-16.552c-16.451,-3.668 -32.897,-7.351 -49.327,-11.106c-4.652,-1.064 -8.716,-4.697 -13.053,-7.136c0.274,-1.282 0.548,-2.564 0.821,-3.844c3.91,-1.173 7.854,-3.438 11.729,-3.327c16.623,0.487 33.261,1.252 49.83,2.69l0,-17.942c-28.922,2.137 -57.664,-1.806 -85.696,-13.022c-17.555,-7.024 -34.047,-15.603 -48.152,-27.202l-30.642,11.011c6.906,0.44 14.148,3.546 22.198,9.738c-8.837,3.566 -15.183,8.308 -21.438,8.196c-7.821,-0.144 -12.933,2.358 -16.622,6.623l9.421,24.054c8.685,-14.257 24.192,-22.463 45.389,-22.385c-7.156,6.143 -13.492,13.944 -21.681,18.01c-9.982,4.955 -13.438,12.231 -15.186,22.12c-0.162,0.92 -0.323,1.843 -0.488,2.767l9.072,23.164c0.689,-2.534 1.567,-5.094 2.639,-7.666c11.898,-28.542 33.08,-50.731 62.422,-47.72c-17.673,29.698 -49.332,50.341 -52.804,86.682l23.549,60.125c10.854,-8.144 24.417,-13.57 39.339,-13.57c0.471,0 0.941,0.027 1.412,0.036c-11.289,-7.728 -22.598,-15.787 -34.548,-24.025c14.168,-11.512 28.959,-11.25 43.216,-3.752Z" style="fill:none;stroke:#000;stroke-width:2px;"/><path d="M509.153,479.243c3.058,-11.131 5.521,-20.107 8.22,-29.937l-19.774,7.106c3.641,7.237 7.414,14.797 11.554,22.831Z" style="fill:#fff;fill-rule:nonzero;stroke:#000;stroke-width:2px;"/><path d="M508.75,493.519c-0.117,11.815 8.875,20.903 20.76,20.979c2.365,0.015 4.74,-0.494 7.024,-1.404l0,-41.481c-0.679,-0.074 -1.37,-0.12 -2.077,-0.123c-12.558,-0.053 -25.596,11.122 -25.707,22.029" style="fill:#fff;fill-rule:nonzero;"/><path d="M508.75,493.519c-0.117,11.815 8.875,20.903 20.76,20.979c2.365,0.015 4.74,-0.494 7.024,-1.404l0,-41.481c-0.679,-0.074 -1.37,-0.12 -2.077,-0.123c-12.558,-0.053 -25.596,11.122 -25.707,22.029Z" style="fill:none;stroke:#000;stroke-width:2px;"/><path d="M700.619,599.926c1.105,2.816 2.207,5.639 3.432,8.784l9.847,-25.144c-1.718,0.368 -3.322,0.686 -4.929,0.962c-11.118,1.898 -12.604,4.548 -8.35,15.398" style="fill-rule:nonzero;"/><path d="M700.619,599.926c1.105,2.816 2.207,5.639 3.432,8.784l9.847,-25.144c-1.718,0.368 -3.322,0.686 -4.929,0.962c-11.118,1.898 -12.604,4.548 -8.35,15.398Z" style="fill:none;stroke:#000;stroke-width:2px;"/><path d="M716.029,568.133c1.008,0.845 1.902,1.832 2.77,2.921l7.398,-18.892c-8.08,2.381 -16.33,4.813 -25.977,7.657c7.364,3.748 12.207,5.289 15.809,8.314" style="fill-rule:nonzero;"/><path d="M716.029,568.133c1.008,0.845 1.902,1.832 2.77,2.921l7.398,-18.892c-8.08,2.381 -16.33,4.813 -25.977,7.657c7.364,3.748 12.207,5.289 15.809,8.314Z" style="fill:none;stroke:#000;stroke-width:2px;"/><path d="M732.859,535.153l4.168,-10.644c-7.523,1.133 -8.41,3.952 -4.168,10.644Z" style="fill-rule:nonzero;stroke:#000;stroke-width:2px;"/><path d="M659.443,537.473c-8.102,-4.576 -7.684,-9.832 -3.922,-16.774c3.713,-6.855 6.951,-13.971 10.598,-21.375c-19.168,-2.663 -28.012,4.237 -39.524,30.943c8.959,6.356 17.221,13.188 26.452,18.257c3.466,1.905 9.183,-0.283 13.875,-0.604c-2.44,-3.576 -4.094,-8.539 -7.479,-10.447" style="fill-rule:nonzero;"/><path d="M659.443,537.473c-8.102,-4.576 -7.684,-9.832 -3.922,-16.774c3.713,-6.855 6.951,-13.971 10.598,-21.375c-19.168,-2.663 -28.012,4.237 -39.524,30.943c8.959,6.356 17.221,13.188 26.452,18.257c3.466,1.905 9.183,-0.283 13.875,-0.604c-2.44,-3.576 -4.094,-8.539 -7.479,-10.447Z" style="fill:none;stroke:#000;stroke-width:2px;"/><path d="M679.381,520.596c10.07,4.946 16.262,7.984 25.211,12.381c-2.104,-10.362 -3.682,-18.131 -6.129,-30.192c-7.623,7.115 -12.689,11.844 -19.082,17.811Z" style="fill-rule:nonzero;stroke:#000;stroke-width:2px;"/><path d="M653.469,676.109c7.357,2.383 14.127,6.023 20.078,10.486l12.703,-32.433c-13.754,-4.203 -23.816,-7.282 -36.732,-11.231c1.412,11.846 2.672,22.426 3.951,33.178Z" style="fill-rule:nonzero;stroke:#000;stroke-width:2px;"/><path d="M628.002,591.926c4.947,1.13 9.305,4.844 13.842,7.312c-7.26,14.538 -17.453,17.554 -30.51,13.264c-18.6,-6.111 -37.204,-12.21 -55.808,-18.308l0,29.75c3.741,0.588 7.497,1.141 11.264,1.665c9.977,1.387 19.855,5.268 29.048,9.567c3.131,1.465 4.021,7.716 5.935,11.779c-4.562,1.311 -9.791,4.754 -13.591,3.586c-10.909,-3.356 -21.798,-6.789 -32.656,-10.318l0,32.804c10.532,2.108 19.423,5.861 27.319,11.874c0.183,-0.112 0.366,-0.216 0.549,-0.33c37.815,-23.385 64.202,-56.789 81.813,-97.522c3.418,-7.902 2.031,-12.14 -4.748,-16.791c-16.643,-11.418 -35.73,-12.581 -54.783,-14.458c-16.727,-1.652 -33.428,-3.592 -50.15,-5.3l0,25.147c24.169,5.379 48.339,10.755 72.476,16.279" style="fill-rule:nonzero;"/><path d="M628.002,591.926c4.947,1.13 9.305,4.844 13.842,7.312c-7.26,14.538 -17.453,17.554 -30.51,13.264c-18.6,-6.111 -37.204,-12.21 -55.808,-18.308l0,29.75c3.741,0.588 7.497,1.141 11.264,1.665c9.977,1.387 19.855,5.268 29.048,9.567c3.131,1.465 4.021,7.716 5.935,11.779c-4.562,1.311 -9.791,4.754 -13.591,3.586c-10.909,-3.356 -21.798,-6.789 -32.656,-10.318l0,32.804c10.532,2.108 19.423,5.861 27.319,11.874c0.183,-0.112 0.366,-0.216 0.549,-0.33c37.815,-23.385 64.202,-56.789 81.813,-97.522c3.418,-7.902 2.031,-12.14 -4.748,-16.791c-16.643,-11.418 -35.73,-12.581 -54.783,-14.458c-16.727,-1.652 -33.428,-3.592 -50.15,-5.3l0,25.147c24.169,5.379 48.339,10.755 72.476,16.279Z" style="fill:none;stroke:#000;stroke-width:2px;"/><path d="M680.705,618.875c-2.027,1.973 -2.096,7.098 -1.393,10.5c1.448,7.01 3.936,13.816 7.116,24.328l13.582,-34.676c-3.268,-0.818 -5.938,-1.431 -8.641,-1.689c-3.602,-0.346 -8.551,-0.518 -10.664,1.537" style="fill-rule:nonzero;"/><path d="M680.705,618.875c-2.027,1.973 -2.096,7.098 -1.393,10.5c1.448,7.01 3.936,13.816 7.116,24.328l13.582,-34.676c-3.268,-0.818 -5.938,-1.431 -8.641,-1.689c-3.602,-0.346 -8.551,-0.518 -10.664,1.537Z" style="fill:none;stroke:#000;stroke-width:2px;"/><path d="M555.526,528.485c5.159,-0.844 10.321,-1.87 15.481,-3.077c31.868,-7.452 53.097,-27.069 68.479,-52.815l-83.96,-30.173l0,86.065Z" style="fill-rule:nonzero;stroke:#000;stroke-width:2px;"/><path d="M588.182,650.541c3.801,1.168 9.029,-2.275 13.592,-3.586c-1.914,-4.062 -2.805,-10.314 -5.936,-11.779c-9.193,-4.299 -19.071,-8.18 -29.048,-9.567c-3.767,-0.523 -7.523,-1.076 -11.264,-1.666l0,16.28c10.859,3.529 21.747,6.963 32.656,10.318" style="fill:#fff;fill-rule:nonzero;"/><path d="M588.182,650.541c3.801,1.168 9.029,-2.275 13.592,-3.586c-1.914,-4.062 -2.805,-10.314 -5.936,-11.779c-9.193,-4.299 -19.071,-8.18 -29.048,-9.567c-3.767,-0.523 -7.523,-1.076 -11.264,-1.666l0,16.28c10.859,3.529 21.747,6.963 32.656,10.318Z" style="fill:none;stroke:#000;stroke-width:2px;"/><path d="M679.381,520.596c6.393,-5.967 11.459,-10.697 19.082,-17.811c2.447,12.06 4.025,19.829 6.129,30.192c-8.949,-4.397 -15.141,-7.435 -25.211,-12.381m-26.334,27.928c-9.23,-5.068 -17.492,-11.901 -26.451,-18.256c11.512,-26.707 20.355,-33.606 39.523,-30.945c-3.646,7.406 -6.884,14.521 -10.597,21.375c-3.762,6.942 -4.18,12.199 3.922,16.774c3.384,1.909 5.039,6.872 7.478,10.448c-4.691,0.321 -10.408,2.508 -13.875,0.603m83.98,-24.014l0.274,-0.697c2.711,-8.139 0,-16.279 -8.139,-18.99l-89.676,-32.228c-15.382,25.746 -36.611,45.362 -68.479,52.814c-5.16,1.207 -10.322,2.232 -15.481,3.077l0,22.014c16.722,1.708 33.423,3.649 50.15,5.3c19.053,1.879 38.141,3.041 54.783,14.459c6.779,4.651 8.166,8.889 4.748,16.791c-17.611,40.735 -43.998,74.137 -81.813,97.524c-0.182,0.113 -0.366,0.216 -0.549,0.327c2.274,1.733 4.471,3.643 6.595,5.766c12.209,-10.851 28.488,-17.638 44.763,-17.638c6.742,0 13.203,1.117 19.266,3.082c-1.279,-10.752 -2.539,-21.332 -3.951,-33.178c12.916,3.949 22.978,7.027 36.732,11.23l0.178,-0.459c-3.18,-10.511 -5.668,-17.318 -7.115,-24.328c-0.703,-3.403 -0.635,-8.528 1.392,-10.5c2.114,-2.054 7.063,-1.884 10.664,-1.538c2.703,0.259 5.373,0.871 8.641,1.691l4.041,-10.317c-1.225,-3.146 -2.326,-5.97 -3.432,-8.785c-4.254,-10.851 -2.767,-13.5 8.35,-15.399c1.607,-0.276 3.211,-0.594 4.93,-0.961l4.9,-12.513c-0.867,-1.087 -1.762,-2.076 -2.77,-2.919c-3.601,-3.026 -8.445,-4.567 -15.808,-8.316c9.646,-2.843 17.896,-5.275 25.976,-7.656l6.663,-17.01c-4.243,-6.692 -3.356,-9.51 4.167,-10.644" style="fill:#fff;fill-rule:nonzero;"/><path d="M679.381,520.596c6.393,-5.967 11.459,-10.697 19.082,-17.811c2.447,12.06 4.025,19.829 6.129,30.192c-8.949,-4.397 -15.141,-7.435 -25.211,-12.381Zm-26.334,27.928c-9.23,-5.068 -17.492,-11.901 -26.451,-18.256c11.512,-26.707 20.355,-33.606 39.523,-30.945c-3.646,7.406 -6.884,14.521 -10.597,21.375c-3.762,6.942 -4.18,12.199 3.922,16.774c3.384,1.909 5.039,6.872 7.478,10.448c-4.691,0.321 -10.408,2.508 -13.875,0.603Zm83.98,-24.014l0.274,-0.697c2.711,-8.139 0,-16.279 -8.139,-18.99l-89.676,-32.228c-15.382,25.746 -36.611,45.362 -68.479,52.814c-5.16,1.207 -10.322,2.232 -15.481,3.077l0,22.014c16.722,1.708 33.423,3.649 50.15,5.3c19.053,1.879 38.141,3.041 54.783,14.459c6.779,4.651 8.166,8.889 4.748,16.791c-17.611,40.735 -43.998,74.137 -81.813,97.524c-0.182,0.113 -0.366,0.216 -0.549,0.327c2.274,1.733 4.471,3.643 6.595,5.766c12.209,-10.851 28.488,-17.638 44.763,-17.638c6.742,0 13.203,1.117 19.266,3.082c-1.279,-10.752 -2.539,-21.332 -3.951,-33.178c12.916,3.949 22.978,7.027 36.732,11.23l0.178,-0.459c-3.18,-10.511 -5.668,-17.318 -7.115,-24.328c-0.703,-3.403 -0.635,-8.528 1.392,-10.5c2.114,-2.054 7.063,-1.884 10.664,-1.538c2.703,0.259 5.373,0.871 8.641,1.691l4.041,-10.317c-1.225,-3.146 -2.326,-5.97 -3.432,-8.785c-4.254,-10.851 -2.767,-13.5 8.35,-15.399c1.607,-0.276 3.211,-0.594 4.93,-0.961l4.9,-12.513c-0.867,-1.087 -1.762,-2.076 -2.77,-2.919c-3.601,-3.026 -8.445,-4.567 -15.808,-8.316c9.646,-2.843 17.896,-5.275 25.976,-7.656l6.663,-17.01c-4.243,-6.692 -3.356,-9.51 4.167,-10.644Z" style="fill:none;stroke:#000;stroke-width:2px;"/><path d="M611.334,612.502c13.057,4.291 23.25,1.273 30.51,-13.264c-4.537,-2.468 -8.895,-6.181 -13.842,-7.312c-24.137,-5.524 -48.307,-10.901 -72.476,-16.279l0,18.546c18.604,6.1 37.208,12.198 55.808,18.309" style="fill:#fff;fill-rule:nonzero;"/><path d="M611.334,612.502c13.057,4.291 23.25,1.273 30.51,-13.264c-4.537,-2.468 -8.895,-6.181 -13.842,-7.312c-24.137,-5.524 -48.307,-10.901 -72.476,-16.279l0,18.546c18.604,6.1 37.208,12.198 55.808,18.309Z" style="fill:none;stroke:#000;stroke-width:2px;"/></g></svg>